<svg width="192" height="34" viewBox="0 0 192 34" fill="none" xmlns="http://www.w3.org/2000/svg">
<rect y="15.0023" width="123" height="4" rx="2" fill="#E7E7E8"/>
<path d="M4.51313 27.4023H5.47313V33.0023H4.36913V28.5703L3.31313 28.8663L3.04113 27.9223L4.51313 27.4023Z" fill="#A6D0F4"/>
<path d="M24.691 33.0023V32.1783L26.603 30.2103C27.0296 29.7623 27.243 29.389 27.243 29.0903C27.243 28.8717 27.1736 28.6957 27.035 28.5623C26.9016 28.429 26.7283 28.3623 26.515 28.3623C26.0936 28.3623 25.7816 28.581 25.579 29.0183L24.651 28.4743C24.827 28.0903 25.0803 27.797 25.411 27.5943C25.7416 27.3917 26.1043 27.2903 26.499 27.2903C27.0056 27.2903 27.4403 27.4503 27.803 27.7703C28.1656 28.085 28.347 28.5117 28.347 29.0503C28.347 29.6317 28.0403 30.229 27.427 30.8423L26.331 31.9383H28.435V33.0023H24.691Z" fill="#A6D0F4"/>
<path d="M50.8443 29.6743C51.2229 29.7863 51.5296 29.9837 51.7643 30.2663C52.0043 30.5437 52.1243 30.8797 52.1243 31.2743C52.1243 31.8503 51.9296 32.301 51.5403 32.6263C51.1563 32.9517 50.6843 33.1143 50.1243 33.1143C49.6869 33.1143 49.2949 33.0157 48.9483 32.8183C48.6069 32.6157 48.3589 32.3197 48.2043 31.9303L49.1483 31.3863C49.2869 31.8183 49.6123 32.0343 50.1243 32.0343C50.4069 32.0343 50.6256 31.9677 50.7803 31.8343C50.9403 31.6957 51.0203 31.509 51.0203 31.2743C51.0203 31.045 50.9403 30.861 50.7803 30.7223C50.6256 30.5837 50.4069 30.5143 50.1243 30.5143H49.8843L49.4603 29.8743L50.5643 28.4343H48.3723V27.4023H51.8923V28.3143L50.8443 29.6743Z" fill="#A6D0F4"/>
<path d="M76.0077 31.0263V32.0503H75.4077V33.0023H74.2957V32.0503H71.6477V31.0263L73.5117 27.4023H74.6957L72.8397 31.0263H74.2957V29.6983H75.4077V31.0263H76.0077Z" fill="#A6D0F4"/>
<path d="M97.4486 29.4423C97.9873 29.4423 98.4406 29.605 98.8086 29.9303C99.1766 30.2503 99.3606 30.6983 99.3606 31.2743C99.3606 31.8503 99.166 32.301 98.7766 32.6263C98.3926 32.9517 97.9206 33.1143 97.3606 33.1143C96.9073 33.1143 96.5073 33.013 96.1606 32.8103C95.814 32.6077 95.5633 32.309 95.4086 31.9143L96.3526 31.3623C96.4913 31.8103 96.8273 32.0343 97.3606 32.0343C97.6433 32.0343 97.862 31.9677 98.0166 31.8343C98.1766 31.6957 98.2566 31.509 98.2566 31.2743C98.2566 31.045 98.1793 30.861 98.0246 30.7223C97.87 30.5837 97.6593 30.5143 97.3926 30.5143H95.6966L95.9206 27.4023H99.0966V28.4343H96.9446L96.8726 29.4423H97.4486Z" fill="#A6D0F4"/>
<path d="M121.069 29.2183C121.65 29.2343 122.122 29.4237 122.485 29.7863C122.848 30.1437 123.029 30.6023 123.029 31.1623C123.029 31.733 122.84 32.2023 122.461 32.5703C122.082 32.933 121.594 33.1143 120.997 33.1143C120.4 33.1143 119.912 32.933 119.533 32.5703C119.16 32.2077 118.973 31.7383 118.973 31.1623C118.973 30.7357 119.082 30.3597 119.301 30.0343L121.045 27.4023H122.309L121.069 29.2183ZM120.333 31.8263C120.509 31.9917 120.73 32.0743 120.997 32.0743C121.264 32.0743 121.485 31.9917 121.661 31.8263C121.842 31.661 121.933 31.4397 121.933 31.1623C121.933 30.8903 121.842 30.6717 121.661 30.5063C121.485 30.341 121.264 30.2583 120.997 30.2583C120.73 30.2583 120.509 30.341 120.333 30.5063C120.157 30.6663 120.069 30.885 120.069 31.1623C120.069 31.4397 120.157 31.661 120.333 31.8263Z" fill="#A6D0F4"/>
<path d="M0 17C0 15.8954 0.895431 15 2 15H116C117.105 15 118 15.8954 118 17C118 18.1046 117.105 19 116 19H2C0.895433 19 0 18.1046 0 17Z" fill="#2196F3"/>
<path d="M120.5 11C123.811 11 126.5 13.6887 126.5 17C126.5 20.3113 123.811 23 120.5 23C117.189 23 114.5 20.3113 114.5 17C114.5 13.6887 117.189 11 120.5 11Z" fill="#2196F3" stroke="white"/>
<rect x="140.5" y="3.5" width="51" height="30" rx="3.5" stroke="#82C4F8"/>
<path d="M159.59 16.478C160.607 16.506 161.433 16.8373 162.068 17.472C162.703 18.0973 163.02 18.9 163.02 19.88C163.02 20.8786 162.689 21.7 162.026 22.344C161.363 22.9786 160.509 23.296 159.464 23.296C158.419 23.296 157.565 22.9786 156.902 22.344C156.249 21.7093 155.922 20.888 155.922 19.88C155.922 19.1333 156.113 18.4753 156.496 17.906L159.548 13.3H161.76L159.59 16.478ZM158.302 21.042C158.61 21.3313 158.997 21.476 159.464 21.476C159.931 21.476 160.318 21.3313 160.626 21.042C160.943 20.7526 161.102 20.3653 161.102 19.88C161.102 19.404 160.943 19.0213 160.626 18.732C160.318 18.4426 159.931 18.298 159.464 18.298C158.997 18.298 158.61 18.4426 158.302 18.732C157.994 19.012 157.84 19.3946 157.84 19.88C157.84 20.3653 157.994 20.7526 158.302 21.042Z" fill="#2C2929"/>
<path d="M171.78 16.844C172.484 16.844 173.048 17.068 173.472 17.516C173.896 17.956 174.108 18.556 174.108 19.316V23H173.064V19.376C173.064 18.896 172.932 18.52 172.668 18.248C172.404 17.976 172.04 17.84 171.576 17.84C171.04 17.84 170.616 18.008 170.304 18.344C169.992 18.672 169.836 19.164 169.836 19.82V23H168.792V14.6H169.836V17.864C170.252 17.184 170.9 16.844 171.78 16.844ZM176.609 17V18.008C176.953 17.264 177.577 16.892 178.481 16.892V17.984C177.969 17.96 177.529 18.096 177.161 18.392C176.793 18.688 176.609 19.164 176.609 19.82V23H175.565V17H176.609ZM180.18 18.62C180.18 19.004 180.576 19.304 181.368 19.52C181.664 19.584 181.912 19.652 182.112 19.724C182.32 19.788 182.544 19.888 182.784 20.024C183.032 20.16 183.22 20.34 183.348 20.564C183.476 20.788 183.54 21.052 183.54 21.356C183.54 21.9 183.328 22.336 182.904 22.664C182.48 22.992 181.944 23.156 181.296 23.156C180.72 23.156 180.22 23.032 179.796 22.784C179.38 22.528 179.084 22.184 178.908 21.752L179.808 21.236C179.904 21.524 180.084 21.752 180.348 21.92C180.612 22.088 180.928 22.172 181.296 22.172C181.656 22.172 181.944 22.104 182.16 21.968C182.376 21.832 182.484 21.628 182.484 21.356C182.484 20.948 182.088 20.652 181.296 20.468C181.032 20.396 180.832 20.34 180.696 20.3C180.56 20.26 180.372 20.188 180.132 20.084C179.9 19.98 179.724 19.872 179.604 19.76C179.484 19.64 179.372 19.484 179.268 19.292C179.172 19.092 179.124 18.872 179.124 18.632C179.124 18.112 179.324 17.684 179.724 17.348C180.132 17.012 180.64 16.844 181.248 16.844C181.736 16.844 182.168 16.956 182.544 17.18C182.928 17.396 183.216 17.7 183.408 18.092L182.532 18.584C182.316 18.072 181.888 17.816 181.248 17.816C180.944 17.816 180.688 17.888 180.48 18.032C180.28 18.176 180.18 18.372 180.18 18.62Z" fill="#A6D0F4"/>
</svg>
