<svg width="280" height="55" viewBox="0 0 280 55" fill="none" xmlns="http://www.w3.org/2000/svg">
<rect y="15" width="221.4" height="4" rx="2" fill="#E7E7E8"/>
<path d="M4.51477 26.7H5.59477V33H4.35277V28.014L3.16477 28.347L2.85877 27.285L4.51477 26.7Z" fill="#A6D0F4"/>
<path d="M24.4524 33V32.073L26.6034 29.859C27.0834 29.355 27.3234 28.935 27.3234 28.599C27.3234 28.353 27.2454 28.155 27.0894 28.005C26.9394 27.855 26.7444 27.78 26.5044 27.78C26.0304 27.78 25.6794 28.026 25.4514 28.518L24.4074 27.906C24.6054 27.474 24.8904 27.144 25.2624 26.916C25.6344 26.688 26.0424 26.574 26.4864 26.574C27.0564 26.574 27.5454 26.754 27.9534 27.114C28.3614 27.468 28.5654 27.948 28.5654 28.554C28.5654 29.208 28.2204 29.88 27.5304 30.57L26.2974 31.803H28.6644V33H24.4524Z" fill="#A6D0F4"/>
<path d="M56.9249 50.256C57.3509 50.382 57.6959 50.604 57.9599 50.922C58.2299 51.234 58.3649 51.612 58.3649 52.056C58.3649 52.704 58.1459 53.211 57.7079 53.577C57.2759 53.943 56.7449 54.126 56.1149 54.126C55.6229 54.126 55.1819 54.015 54.7919 53.793C54.4079 53.565 54.1289 53.232 53.9549 52.794L55.0169 52.182C55.1729 52.668 55.5389 52.911 56.1149 52.911C56.4329 52.911 56.6789 52.836 56.8529 52.686C57.0329 52.53 57.1229 52.32 57.1229 52.056C57.1229 51.798 57.0329 51.591 56.8529 51.435C56.6789 51.279 56.4329 51.201 56.1149 51.201H55.8449L55.3679 50.481L56.6099 48.861H54.1439V47.7H58.1039V48.726L56.9249 50.256Z" fill="#A6D0F4"/>
<path d="M82.2836 51.777V52.929H81.6086V54H80.3576V52.929H77.3786V51.777L79.4756 47.7H80.8076L78.7196 51.777H80.3576V50.283H81.6086V51.777H82.2836Z" fill="#A6D0F4"/>
<path d="M97.4547 28.995C98.0607 28.995 98.5707 29.178 98.9847 29.544C99.3987 29.904 99.6057 30.408 99.6057 31.056C99.6057 31.704 99.3867 32.211 98.9487 32.577C98.5167 32.943 97.9857 33.126 97.3557 33.126C96.8457 33.126 96.3957 33.012 96.0057 32.784C95.6157 32.556 95.3337 32.22 95.1597 31.776L96.2217 31.155C96.3777 31.659 96.7557 31.911 97.3557 31.911C97.6737 31.911 97.9197 31.836 98.0937 31.686C98.2737 31.53 98.3637 31.32 98.3637 31.056C98.3637 30.798 98.2767 30.591 98.1027 30.435C97.9287 30.279 97.6917 30.201 97.3917 30.201H95.4837L95.7357 26.7H99.3087V27.861H96.8877L96.8067 28.995H97.4547Z" fill="#A6D0F4"/>
<path d="M121.078 28.743C121.732 28.761 122.263 28.974 122.671 29.382C123.079 29.784 123.283 30.3 123.283 30.93C123.283 31.572 123.07 32.1 122.644 32.514C122.218 32.922 121.669 33.126 120.997 33.126C120.325 33.126 119.776 32.922 119.35 32.514C118.93 32.106 118.72 31.578 118.72 30.93C118.72 30.45 118.843 30.027 119.089 29.661L121.051 26.7H122.473L121.078 28.743ZM120.25 31.677C120.448 31.863 120.697 31.956 120.997 31.956C121.297 31.956 121.546 31.863 121.744 31.677C121.948 31.491 122.05 31.242 122.05 30.93C122.05 30.624 121.948 30.378 121.744 30.192C121.546 30.006 121.297 29.913 120.997 29.913C120.697 29.913 120.448 30.006 120.25 30.192C120.052 30.372 119.953 30.618 119.953 30.93C119.953 31.242 120.052 31.491 120.25 31.677Z" fill="#A6D0F4"/>
<path d="M142.511 26.7H146.579V27.753L144.446 33H143.132L145.202 27.888H142.511V26.7Z" fill="#A6D0F4"/>
<path d="M169.584 29.724C170.166 30.072 170.457 30.579 170.457 31.245C170.457 31.827 170.253 32.286 169.845 32.622C169.443 32.958 168.894 33.126 168.198 33.126C167.496 33.126 166.944 32.958 166.542 32.622C166.14 32.286 165.939 31.827 165.939 31.245C165.939 30.579 166.227 30.072 166.803 29.724C166.365 29.406 166.146 28.971 166.146 28.419C166.146 27.837 166.341 27.384 166.731 27.06C167.127 26.736 167.616 26.574 168.198 26.574C168.78 26.574 169.266 26.736 169.656 27.06C170.046 27.384 170.241 27.837 170.241 28.419C170.241 28.977 170.022 29.412 169.584 29.724ZM168.783 27.942C168.633 27.81 168.438 27.744 168.198 27.744C167.958 27.744 167.763 27.81 167.613 27.942C167.463 28.074 167.388 28.254 167.388 28.482C167.388 28.71 167.463 28.893 167.613 29.031C167.763 29.163 167.958 29.229 168.198 29.229C168.438 29.229 168.633 29.163 168.783 29.031C168.933 28.893 169.008 28.71 169.008 28.482C169.008 28.254 168.933 28.074 168.783 27.942ZM167.451 31.731C167.643 31.881 167.892 31.956 168.198 31.956C168.504 31.956 168.75 31.881 168.936 31.731C169.128 31.575 169.224 31.359 169.224 31.083C169.224 30.813 169.128 30.603 168.936 30.453C168.75 30.297 168.504 30.219 168.198 30.219C167.892 30.219 167.643 30.297 167.451 30.453C167.265 30.603 167.172 30.813 167.172 31.083C167.172 31.359 167.265 31.575 167.451 31.731Z" fill="#A6D0F4"/>
<path d="M194.083 28.761C194.083 29.247 193.957 29.673 193.705 30.039H193.714L191.752 33H190.33L191.734 30.948C191.08 30.936 190.546 30.729 190.132 30.327C189.724 29.919 189.52 29.397 189.52 28.761C189.52 28.119 189.73 27.594 190.15 27.186C190.576 26.778 191.125 26.574 191.797 26.574C192.475 26.574 193.024 26.778 193.444 27.186C193.87 27.588 194.083 28.113 194.083 28.761ZM190.753 28.761C190.753 29.073 190.852 29.322 191.05 29.508C191.254 29.694 191.503 29.787 191.797 29.787C192.103 29.787 192.355 29.694 192.553 29.508C192.751 29.322 192.85 29.073 192.85 28.761C192.85 28.449 192.751 28.203 192.553 28.023C192.355 27.837 192.103 27.744 191.797 27.744C191.503 27.744 191.254 27.837 191.05 28.023C190.852 28.209 190.753 28.455 190.753 28.761Z" fill="#A6D0F4"/>
<path d="M212.58 26.7H213.66V33H212.418V28.014L211.23 28.347L210.924 27.285L212.58 26.7ZM217.141 33.126C216.355 33.126 215.737 32.829 215.287 32.235C214.843 31.635 214.621 30.84 214.621 29.85C214.621 28.86 214.843 28.068 215.287 27.474C215.737 26.874 216.355 26.574 217.141 26.574C217.933 26.574 218.551 26.874 218.995 27.474C219.439 28.068 219.661 28.86 219.661 29.85C219.661 30.84 219.439 31.635 218.995 32.235C218.551 32.829 217.933 33.126 217.141 33.126ZM216.187 31.389C216.403 31.737 216.721 31.911 217.141 31.911C217.561 31.911 217.879 31.734 218.095 31.38C218.317 31.026 218.428 30.516 218.428 29.85C218.428 29.178 218.317 28.665 218.095 28.311C217.879 27.957 217.561 27.78 217.141 27.78C216.721 27.78 216.403 27.957 216.187 28.311C215.971 28.665 215.863 29.178 215.863 29.85C215.863 30.522 215.971 31.035 216.187 31.389Z" fill="#A6D0F4"/>
<path d="M0 17C0 15.8954 0.895431 15 2 15H54C55.1046 15 56 15.8954 56 17C56 18.1046 55.1046 19 54 19H2C0.89543 19 0 18.1046 0 17Z" fill="#2196F3"/>
<path d="M49.5 11C52.8113 11 55.5 13.6887 55.5 17C55.5 20.3113 52.8113 23 49.5 23C46.1887 23 43.5 20.3113 43.5 17C43.5 13.6887 46.1887 11 49.5 11Z" fill="#2196F3" stroke="white"/>
<rect x="235.5" y="3.5" width="40" height="30" rx="3.5" stroke="#82C4F8"/>
<path d="M255.942 17.276C256.605 17.472 257.141 17.8173 257.552 18.312C257.972 18.7973 258.182 19.3853 258.182 20.076C258.182 21.084 257.841 21.8726 257.16 22.442C256.488 23.0113 255.662 23.296 254.682 23.296C253.917 23.296 253.231 23.1233 252.624 22.778C252.027 22.4233 251.593 21.9053 251.322 21.224L252.974 20.272C253.217 21.028 253.786 21.406 254.682 21.406C255.177 21.406 255.559 21.2893 255.83 21.056C256.11 20.8133 256.25 20.4866 256.25 20.076C256.25 19.6746 256.11 19.3526 255.83 19.11C255.559 18.8673 255.177 18.746 254.682 18.746H254.262L253.52 17.626L255.452 15.106H251.616V13.3H257.776V14.896L255.942 17.276Z" fill="#2C2929"/>
</svg>
