<svg width="30" height="30" viewBox="0 0 30 30" fill="none" xmlns="http://www.w3.org/2000/svg">
<path d="M15.0834 9.16663C11.8334 9.16663 9.25006 11.75 9.25006 15C9.25006 18.25 11.8334 20.8333 15.0834 20.8333C18.3334 20.8333 20.9167 18.25 20.9167 15C20.9167 11.75 18.3334 9.16663 15.0834 9.16663ZM15.0834 19.1666C12.7501 19.1666 10.9167 17.3333 10.9167 15C10.9167 12.6666 12.7501 10.8333 15.0834 10.8333C17.4167 10.8333 19.2501 12.6666 19.2501 15C19.2501 17.3333 17.4167 19.1666 15.0834 19.1666Z" fill="#171736"/>
<path d="M27.3333 12.25L25 11.5L24.5 10.25L25.6666 8.08329C25.9166 7.58329 25.8333 6.91663 25.4166 6.49996L23.4166 4.49996C23 4.08329 22.3333 3.99996 21.8333 4.24996L19.6666 5.41663L18.4166 4.91663L17.6666 2.58329C17.5 2.08329 17 1.66663 16.4166 1.66663H13.5833C13 1.66663 12.5 2.08329 12.4166 2.66663L11.6666 4.99996C11.1666 5.08329 10.75 5.24996 10.3333 5.49996L8.16663 4.33329C7.66663 4.08329 6.99996 4.16663 6.58329 4.58329L4.58329 6.58329C4.16663 6.99996 4.08329 7.66663 4.33329 8.16663L5.41663 10.25C5.24996 10.6666 5.08329 11.1666 4.91663 11.5833L2.58329 12.3333C2.08329 12.5 1.66663 13 1.66663 13.5833V16.4166C1.66663 17 2.08329 17.5 2.66663 17.6666L4.99996 18.4166L5.49996 19.6666L4.33329 21.8333C4.08329 22.3333 4.16663 23 4.58329 23.4166L6.58329 25.4166C6.99996 25.8333 7.66663 25.9166 8.16663 25.6666L10.3333 24.5L11.5833 25L12.3333 27.4166C12.5 27.9166 13 28.3333 13.5833 28.3333H16.4166C17 28.3333 17.5 27.9166 17.6666 27.4166L18.4166 25L19.6666 24.5L21.8333 25.6666C22.3333 25.9166 23 25.8333 23.4166 25.4166L25.4166 23.4166C25.8333 23 25.9166 22.3333 25.6666 21.8333L24.5 19.6666L25 18.4166L27.4166 17.6666C27.9166 17.5 28.3333 17 28.3333 16.4166V13.5833C28.3333 13 27.9166 12.4166 27.3333 12.25ZM26.6666 16.1666L23.6666 17.0833L23.5833 17.5L22.8333 19.25L22.5833 19.6666L24.0833 22.4166L22.4166 24.0833L19.6666 22.5833L19.25 22.8333C18.6666 23.1666 18.0833 23.4166 17.5 23.5833L17.0833 23.6666L16.1666 26.6666H13.8333L12.9166 23.6666L12.5 23.5833L10.75 22.8333L10.3333 22.5833L7.58329 24.0833L5.91663 22.4166L7.41663 19.6666L7.16663 19.25C6.83329 18.6666 6.58329 18.0833 6.41663 17.5L6.33329 17.0833L3.33329 16.1666V13.8333L6.16663 13L6.33329 12.5833C6.49996 11.9166 6.74996 11.3333 7.08329 10.75L7.33329 10.3333L5.91663 7.58329L7.58329 5.91663L10.25 7.41663L10.6666 7.16663C11.25 6.83329 11.8333 6.58329 12.5 6.41663L12.9166 6.24996L13.8333 3.33329H16.1666L17.0833 6.24996L17.5 6.41663C18.0833 6.58329 18.6666 6.83329 19.25 7.16663L19.6666 7.41663L22.4166 5.91663L24.0833 7.58329L22.5833 10.3333L22.8333 10.75C23.1666 11.3333 23.4166 11.9166 23.5833 12.5L23.6666 12.9166L26.6666 13.8333V16.1666Z" fill="#171736"/>
</svg>
