<svg width="194" height="55" viewBox="0 0 194 55" fill="none" xmlns="http://www.w3.org/2000/svg">
<rect y="15.0023" width="123" height="4" rx="2" fill="#E7E7E8"/>
<path d="M4.51313 27.4023H5.47313V33.0023H4.36913V28.5703L3.31313 28.8663L3.04113 27.9223L4.51313 27.4023Z" fill="#A6D0F4"/>
<path d="M24.691 33.0023V32.1783L26.603 30.2103C27.0296 29.7623 27.243 29.389 27.243 29.0903C27.243 28.8717 27.1736 28.6957 27.035 28.5623C26.9016 28.429 26.7283 28.3623 26.515 28.3623C26.0936 28.3623 25.7816 28.581 25.579 29.0183L24.651 28.4743C24.827 28.0903 25.0803 27.797 25.411 27.5943C25.7416 27.3917 26.1043 27.2903 26.499 27.2903C27.0056 27.2903 27.4403 27.4503 27.803 27.7703C28.1656 28.085 28.347 28.5117 28.347 29.0503C28.347 29.6317 28.0403 30.229 27.427 30.8423L26.331 31.9383H28.435V33.0023H24.691Z" fill="#A6D0F4"/>
<path d="M56.8443 50.6743C57.223 50.7863 57.5297 50.9837 57.7643 51.2663C58.0043 51.5437 58.1243 51.8797 58.1243 52.2743C58.1243 52.8503 57.9297 53.301 57.5403 53.6263C57.1563 53.9517 56.6843 54.1143 56.1243 54.1143C55.687 54.1143 55.295 54.0157 54.9483 53.8183C54.607 53.6157 54.359 53.3197 54.2043 52.9303L55.1483 52.3863C55.287 52.8183 55.6123 53.0343 56.1243 53.0343C56.407 53.0343 56.6257 52.9677 56.7803 52.8343C56.9403 52.6957 57.0203 52.509 57.0203 52.2743C57.0203 52.045 56.9403 51.861 56.7803 51.7223C56.6257 51.5837 56.407 51.5143 56.1243 51.5143H55.8843L55.4603 50.8743L56.5643 49.4343H54.3723V48.4023H57.8923V49.3143L56.8443 50.6743Z" fill="#A6D0F4"/>
<path d="M76.0077 31.0263V32.0503H75.4077V33.0023H74.2957V32.0503H71.6477V31.0263L73.5117 27.4023H74.6957L72.8397 31.0263H74.2957V29.6983H75.4077V31.0263H76.0077Z" fill="#A6D0F4"/>
<path d="M97.4486 29.4423C97.9873 29.4423 98.4406 29.605 98.8086 29.9303C99.1766 30.2503 99.3606 30.6983 99.3606 31.2743C99.3606 31.8503 99.166 32.301 98.7766 32.6263C98.3926 32.9517 97.9206 33.1143 97.3606 33.1143C96.9073 33.1143 96.5073 33.013 96.1606 32.8103C95.814 32.6077 95.5633 32.309 95.4086 31.9143L96.3526 31.3623C96.4913 31.8103 96.8273 32.0343 97.3606 32.0343C97.6433 32.0343 97.862 31.9677 98.0166 31.8343C98.1766 31.6957 98.2566 31.509 98.2566 31.2743C98.2566 31.045 98.1793 30.861 98.0246 30.7223C97.87 30.5837 97.6593 30.5143 97.3926 30.5143H95.6966L95.9206 27.4023H99.0966V28.4343H96.9446L96.8726 29.4423H97.4486Z" fill="#A6D0F4"/>
<path d="M121.069 29.2183C121.65 29.2343 122.122 29.4237 122.485 29.7863C122.848 30.1437 123.029 30.6023 123.029 31.1623C123.029 31.733 122.84 32.2023 122.461 32.5703C122.082 32.933 121.594 33.1143 120.997 33.1143C120.4 33.1143 119.912 32.933 119.533 32.5703C119.16 32.2077 118.973 31.7383 118.973 31.1623C118.973 30.7357 119.082 30.3597 119.301 30.0343L121.045 27.4023H122.309L121.069 29.2183ZM120.333 31.8263C120.509 31.9917 120.73 32.0743 120.997 32.0743C121.264 32.0743 121.485 31.9917 121.661 31.8263C121.842 31.661 121.933 31.4397 121.933 31.1623C121.933 30.8903 121.842 30.6717 121.661 30.5063C121.485 30.341 121.264 30.2583 120.997 30.2583C120.73 30.2583 120.509 30.341 120.333 30.5063C120.157 30.6663 120.069 30.885 120.069 31.1623C120.069 31.4397 120.157 31.661 120.333 31.8263Z" fill="#A6D0F4"/>
<path d="M0 17C0 15.8954 0.895431 15 2 15H77C78.1046 15 79 15.8954 79 17C79 18.1046 78.1046 19 77 19H2C0.895432 19 0 18.1046 0 17Z" fill="#2196F3"/>
<path d="M73.5 11C76.8113 11 79.5 13.6887 79.5 17C79.5 20.3113 76.8113 23 73.5 23C70.1887 23 67.5 20.3113 67.5 17C67.5 13.6887 70.1887 11 73.5 11Z" fill="#2196F3" stroke="white"/>
<rect x="140.5" y="3.5" width="53" height="30" rx="3.5" stroke="#82C4F8"/>
<path d="M173.78 16.844C174.484 16.844 175.048 17.068 175.472 17.516C175.896 17.956 176.108 18.556 176.108 19.316V23H175.064V19.376C175.064 18.896 174.932 18.52 174.668 18.248C174.404 17.976 174.04 17.84 173.576 17.84C173.04 17.84 172.616 18.008 172.304 18.344C171.992 18.672 171.836 19.164 171.836 19.82V23H170.792V14.6H171.836V17.864C172.252 17.184 172.9 16.844 173.78 16.844ZM178.609 17V18.008C178.953 17.264 179.577 16.892 180.481 16.892V17.984C179.969 17.96 179.529 18.096 179.161 18.392C178.793 18.688 178.609 19.164 178.609 19.82V23H177.565V17H178.609ZM182.18 18.62C182.18 19.004 182.576 19.304 183.368 19.52C183.664 19.584 183.912 19.652 184.112 19.724C184.32 19.788 184.544 19.888 184.784 20.024C185.032 20.16 185.22 20.34 185.348 20.564C185.476 20.788 185.54 21.052 185.54 21.356C185.54 21.9 185.328 22.336 184.904 22.664C184.48 22.992 183.944 23.156 183.296 23.156C182.72 23.156 182.22 23.032 181.796 22.784C181.38 22.528 181.084 22.184 180.908 21.752L181.808 21.236C181.904 21.524 182.084 21.752 182.348 21.92C182.612 22.088 182.928 22.172 183.296 22.172C183.656 22.172 183.944 22.104 184.16 21.968C184.376 21.832 184.484 21.628 184.484 21.356C184.484 20.948 184.088 20.652 183.296 20.468C183.032 20.396 182.832 20.34 182.696 20.3C182.56 20.26 182.372 20.188 182.132 20.084C181.9 19.98 181.724 19.872 181.604 19.76C181.484 19.64 181.372 19.484 181.268 19.292C181.172 19.092 181.124 18.872 181.124 18.632C181.124 18.112 181.324 17.684 181.724 17.348C182.132 17.012 182.64 16.844 183.248 16.844C183.736 16.844 184.168 16.956 184.544 17.18C184.928 17.396 185.216 17.7 185.408 18.092L184.532 18.584C184.316 18.072 183.888 17.816 183.248 17.816C182.944 17.816 182.688 17.888 182.48 18.032C182.28 18.176 182.18 18.372 182.18 18.62Z" fill="#A6D0F4"/>
<path d="M163.524 19.642V21.434H162.474V23.1H160.528V21.434H155.894V19.642L159.156 13.3H161.228L157.98 19.642H160.528V17.318H162.474V19.642H163.524Z" fill="#2C2929"/>
</svg>
