<svg width="200" height="34" viewBox="0 0 200 34" fill="none" xmlns="http://www.w3.org/2000/svg">
<rect x="2.67468" y="15.0023" width="123" height="4" rx="2" fill="#E7E7E8"/>
<path d="M1.47199 27.4H2.43199V33H1.32799V28.568L0.271987 28.864L-1.26883e-05 27.92L1.47199 27.4ZM6.96174 28.8C7.36574 28.8 7.70574 28.936 7.98174 29.208C8.25774 29.48 8.39574 29.814 8.39574 30.21C8.39574 30.606 8.25774 30.94 7.98174 31.212C7.70574 31.484 7.36574 31.62 6.96174 31.62H6.22374V33H5.39574V28.8H6.96174ZM6.96174 30.846C7.13774 30.846 7.28374 30.786 7.39974 30.666C7.51574 30.542 7.57374 30.39 7.57374 30.21C7.57374 30.026 7.51574 29.874 7.39974 29.754C7.28374 29.634 7.13774 29.574 6.96174 29.574H6.22374V30.846H6.96174ZM13.0448 28.8V33H12.2228V30.276L11.0408 32.226H10.9448L9.7628 30.282V33H8.9348V28.8H9.7868L10.9928 30.786L12.1928 28.8H13.0448Z" fill="#A6D0F4"/>
<path d="M23.0499 33.0023V32.1783L24.9619 30.2103C25.3885 29.7623 25.6019 29.389 25.6019 29.0903C25.6019 28.8717 25.5325 28.6957 25.3939 28.5623C25.2605 28.429 25.0872 28.3623 24.8739 28.3623C24.4525 28.3623 24.1405 28.581 23.9379 29.0183L23.0099 28.4743C23.1859 28.0903 23.4392 27.797 23.7699 27.5943C24.1005 27.3917 24.4632 27.2903 24.8579 27.2903C25.3645 27.2903 25.7992 27.4503 26.1619 27.7703C26.5245 28.085 26.7059 28.5117 26.7059 29.0503C26.7059 29.6317 26.3992 30.229 25.7859 30.8423L24.6899 31.9383H26.7939V33.0023H23.0499ZM31.0399 28.8023C31.4439 28.8023 31.7839 28.9383 32.0599 29.2103C32.3359 29.4823 32.4739 29.8163 32.4739 30.2123C32.4739 30.6083 32.3359 30.9423 32.0599 31.2143C31.7839 31.4863 31.4439 31.6223 31.0399 31.6223H30.3019V33.0023H29.4739V28.8023H31.0399ZM31.0399 30.8483C31.2159 30.8483 31.3619 30.7883 31.4779 30.6683C31.5939 30.5443 31.6519 30.3923 31.6519 30.2123C31.6519 30.0283 31.5939 29.8763 31.4779 29.7563C31.3619 29.6363 31.2159 29.5763 31.0399 29.5763H30.3019V30.8483H31.0399ZM37.1229 28.8023V33.0023H36.3009V30.2783L35.1189 32.2283H35.0229L33.8409 30.2843V33.0023H33.0129V28.8023H33.8649L35.0709 30.7883L36.2709 28.8023H37.1229Z" fill="#A6D0F4"/>
<path d="M48.6032 29.6743C48.9818 29.7863 49.2885 29.9837 49.5232 30.2663C49.7632 30.5437 49.8832 30.8797 49.8832 31.2743C49.8832 31.8503 49.6885 32.301 49.2992 32.6263C48.9152 32.9517 48.4432 33.1143 47.8832 33.1143C47.4458 33.1143 47.0538 33.0157 46.7072 32.8183C46.3658 32.6157 46.1178 32.3197 45.9632 31.9303L46.9072 31.3863C47.0458 31.8183 47.3712 32.0343 47.8832 32.0343C48.1658 32.0343 48.3845 31.9677 48.5392 31.8343C48.6992 31.6957 48.7792 31.509 48.7792 31.2743C48.7792 31.045 48.6992 30.861 48.5392 30.7223C48.3845 30.5837 48.1658 30.5143 47.8832 30.5143H47.6432L47.2192 29.8743L48.3232 28.4343H46.1312V27.4023H49.6512V28.3143L48.6032 29.6743ZM54.0945 28.8023C54.4985 28.8023 54.8385 28.9383 55.1145 29.2103C55.3905 29.4823 55.5285 29.8163 55.5285 30.2123C55.5285 30.6083 55.3905 30.9423 55.1145 31.2143C54.8385 31.4863 54.4985 31.6223 54.0945 31.6223H53.3565V33.0023H52.5285V28.8023H54.0945ZM54.0945 30.8483C54.2705 30.8483 54.4165 30.7883 54.5325 30.6683C54.6485 30.5443 54.7066 30.3923 54.7066 30.2123C54.7066 30.0283 54.6485 29.8763 54.5325 29.7563C54.4165 29.6363 54.2705 29.5763 54.0945 29.5763H53.3565V30.8483H54.0945ZM60.1776 28.8023V33.0023H59.3556V30.2783L58.1736 32.2283H58.0776L56.8956 30.2843V33.0023H56.0676V28.8023H56.9196L58.1256 30.7883L59.3256 28.8023H60.1776Z" fill="#A6D0F4"/>
<path d="M72.6666 31.0263V32.0503H72.0666V33.0023H70.9546V32.0503H68.3065V31.0263L70.1705 27.4023H71.3545L69.4985 31.0263H70.9546V29.6983H72.0666V31.0263H72.6666ZM76.7352 28.8023C77.1392 28.8023 77.4792 28.9383 77.7552 29.2103C78.0312 29.4823 78.1692 29.8163 78.1692 30.2123C78.1692 30.6083 78.0312 30.9423 77.7552 31.2143C77.4792 31.4863 77.1392 31.6223 76.7352 31.6223H75.9972V33.0023H75.1692V28.8023H76.7352ZM76.7352 30.8483C76.9112 30.8483 77.0572 30.7883 77.1732 30.6683C77.2892 30.5443 77.3472 30.3923 77.3472 30.2123C77.3472 30.0283 77.2892 29.8763 77.1732 29.7563C77.0572 29.6363 76.9112 29.5763 76.7352 29.5763H75.9972V30.8483H76.7352ZM82.8182 28.8023V33.0023H81.9962V30.2783L80.8142 32.2283H80.7182L79.5362 30.2843V33.0023H78.7082V28.8023H79.5602L80.7662 30.7883L81.9662 28.8023H82.8182Z" fill="#A6D0F4"/>
<path d="M95.2575 29.4423C95.7961 29.4423 96.2495 29.605 96.6175 29.9303C96.9855 30.2503 97.1695 30.6983 97.1695 31.2743C97.1695 31.8503 96.9748 32.301 96.5855 32.6263C96.2015 32.9517 95.7295 33.1143 95.1695 33.1143C94.7161 33.1143 94.3161 33.013 93.9695 32.8103C93.6228 32.6077 93.3721 32.309 93.2175 31.9143L94.1615 31.3623C94.3001 31.8103 94.6361 32.0343 95.1695 32.0343C95.4521 32.0343 95.6708 31.9677 95.8255 31.8343C95.9855 31.6957 96.0655 31.509 96.0655 31.2743C96.0655 31.045 95.9881 30.861 95.8335 30.7223C95.6788 30.5837 95.4681 30.5143 95.2015 30.5143H93.5055L93.7295 27.4023H96.9055V28.4343H94.7535L94.6815 29.4423H95.2575ZM100.856 28.8023C101.26 28.8023 101.6 28.9383 101.876 29.2103C102.152 29.4823 102.29 29.8163 102.29 30.2123C102.29 30.6083 102.152 30.9423 101.876 31.2143C101.6 31.4863 101.26 31.6223 100.856 31.6223H100.118V33.0023H99.2903V28.8023H100.856ZM100.856 30.8483C101.032 30.8483 101.178 30.7883 101.294 30.6683C101.41 30.5443 101.468 30.3923 101.468 30.2123C101.468 30.0283 101.41 29.8763 101.294 29.7563C101.178 29.6363 101.032 29.5763 100.856 29.5763H100.118V30.8483H100.856ZM106.939 28.8023V33.0023H106.117V30.2783L104.935 32.2283H104.839L103.657 30.2843V33.0023H102.829V28.8023H103.681L104.887 30.7883L106.087 28.8023H106.939Z" fill="#A6D0F4"/>
<path d="M118.278 29.2183C118.859 29.2343 119.331 29.4237 119.694 29.7863C120.057 30.1437 120.238 30.6023 120.238 31.1623C120.238 31.733 120.049 32.2023 119.67 32.5703C119.291 32.933 118.803 33.1143 118.206 33.1143C117.609 33.1143 117.121 32.933 116.742 32.5703C116.369 32.2077 116.182 31.7383 116.182 31.1623C116.182 30.7357 116.291 30.3597 116.51 30.0343L118.254 27.4023H119.518L118.278 29.2183ZM117.542 31.8263C117.718 31.9917 117.939 32.0743 118.206 32.0743C118.473 32.0743 118.694 31.9917 118.87 31.8263C119.051 31.661 119.142 31.4397 119.142 31.1623C119.142 30.8903 119.051 30.6717 118.87 30.5063C118.694 30.341 118.473 30.2583 118.206 30.2583C117.939 30.2583 117.718 30.341 117.542 30.5063C117.366 30.6663 117.278 30.885 117.278 31.1623C117.278 31.4397 117.366 31.661 117.542 31.8263ZM123.876 28.8023C124.28 28.8023 124.62 28.9383 124.896 29.2103C125.172 29.4823 125.31 29.8163 125.31 30.2123C125.31 30.6083 125.172 30.9423 124.896 31.2143C124.62 31.4863 124.28 31.6223 123.876 31.6223H123.138V33.0023H122.31V28.8023H123.876ZM123.876 30.8483C124.052 30.8483 124.198 30.7883 124.314 30.6683C124.43 30.5443 124.488 30.3923 124.488 30.2123C124.488 30.0283 124.43 29.8763 124.314 29.7563C124.198 29.6363 124.052 29.5763 123.876 29.5763H123.138V30.8483H123.876ZM129.959 28.8023V33.0023H129.137V30.2783L127.955 32.2283H127.859L126.677 30.2843V33.0023H125.849V28.8023H126.701L127.907 30.7883L129.107 28.8023H129.959Z" fill="#A6D0F4"/>
<path d="M2.67468 17C2.67468 15.8954 3.57011 15 4.67468 15H56.6747C57.7793 15 58.6747 15.8954 58.6747 17C58.6747 18.1046 57.7793 19 56.6747 19H4.67468C3.57011 19 2.67468 18.1046 2.67468 17Z" fill="#2196F3"/>
<path d="M52.1747 11C55.4859 11 58.1747 13.6887 58.1747 17C58.1747 20.3113 55.4859 23 52.1747 23C48.8634 23 46.1747 20.3113 46.1747 17C46.1747 13.6887 48.8634 11 52.1747 11Z" fill="#2196F3" stroke="white"/>
<rect x="143.175" y="3.5" width="56" height="30" rx="3.5" stroke="#82C4F8"/>
<path d="M163.217 17.276C163.879 17.472 164.416 17.8173 164.827 18.312C165.247 18.7973 165.457 19.3853 165.457 20.076C165.457 21.084 165.116 21.8726 164.435 22.442C163.763 23.0113 162.937 23.296 161.957 23.296C161.191 23.296 160.505 23.1233 159.899 22.778C159.301 22.4233 158.867 21.9053 158.597 21.224L160.249 20.272C160.491 21.028 161.061 21.406 161.957 21.406C162.451 21.406 162.834 21.2893 163.105 21.056C163.385 20.8133 163.525 20.4866 163.525 20.076C163.525 19.6746 163.385 19.3526 163.105 19.11C162.834 18.8673 162.451 18.746 161.957 18.746H161.537L160.795 17.626L162.727 15.106H158.891V13.3H165.051V14.896L163.217 17.276ZM173.968 13.3C174.91 13.3 175.704 13.6173 176.348 14.252C176.992 14.8866 177.314 15.666 177.314 16.59C177.314 17.514 176.992 18.2933 176.348 18.928C175.704 19.5626 174.91 19.88 173.968 19.88H172.246V23.1H170.314V13.3H173.968ZM173.968 18.074C174.378 18.074 174.719 17.934 174.99 17.654C175.26 17.3646 175.396 17.01 175.396 16.59C175.396 16.1606 175.26 15.806 174.99 15.526C174.719 15.246 174.378 15.106 173.968 15.106H172.246V18.074H173.968ZM188.161 13.3V23.1H186.243V16.744L183.485 21.294H183.261L180.503 16.758V23.1H178.571V13.3H180.559L183.373 17.934L186.173 13.3H188.161Z" fill="#2C2929"/>
</svg>
